<?xml version="1.0" encoding="UTF-8" standalone="no"?>
<!-- Generator: Adobe Illustrator 16.0.0, SVG Export Plug-In . SVG Version: 6.00 Build 0)  -->

<svg
   xmlns:dc="http://purl.org/dc/elements/1.1/"
   xmlns:cc="http://creativecommons.org/ns#"
   xmlns:rdf="http://www.w3.org/1999/02/22-rdf-syntax-ns#"
   xmlns:svg="http://www.w3.org/2000/svg"
   xmlns="http://www.w3.org/2000/svg"
   xmlns:sodipodi="http://sodipodi.sourceforge.net/DTD/sodipodi-0.dtd"
   xmlns:inkscape="http://www.inkscape.org/namespaces/inkscape"
   version="1.1"
   id="Capa_1"
   x="0px"
   y="0px"
   width="520.526px"
   height="520.525px"
   viewBox="0 0 520.526 520.525"
   style="enable-background:new 0 0 520.526 520.525;"
   xml:space="preserve"
   inkscape:version="0.91 r13725"
   sodipodi:docname="calibrate-section.svg"><metadata
     id="metadata41"><rdf:RDF><cc:Work
         rdf:about=""><dc:format>image/svg+xml</dc:format><dc:type
           rdf:resource="http://purl.org/dc/dcmitype/StillImage" /></cc:Work></rdf:RDF></metadata><defs
     id="defs39" /><sodipodi:namedview
     pagecolor="#ffffff"
     bordercolor="#666666"
     borderopacity="1"
     objecttolerance="10"
     gridtolerance="10"
     guidetolerance="10"
     inkscape:pageopacity="0"
     inkscape:pageshadow="2"
     inkscape:window-width="1071"
     inkscape:window-height="731"
     id="namedview37"
     showgrid="false"
     inkscape:zoom="0.45338838"
     inkscape:cx="-33.083729"
     inkscape:cy="260.26251"
     inkscape:window-x="0"
     inkscape:window-y="0"
     inkscape:window-maximized="0"
     inkscape:current-layer="g3" /><g
     id="g3"><path
       d="M481.686,254.21C478.5,140.55,386.245,48.826,272.368,46.515V0h-12.105v46.601C147.92,50.611,57.426,141.655,54.272,254.21   H0v12.105h54.272c3.154,112.554,93.647,203.603,205.99,207.61v46.6h12.105v-46.518c113.877-2.305,206.133-94.028,209.318-207.692   h38.84V254.21H481.686z M260.263,58.706v61.779c-71.925,3.674-129.484,61.644-132.552,133.725H66.378   C69.52,148.325,154.596,62.699,260.263,58.706z M260.263,461.82C154.596,457.824,69.52,372.201,66.378,266.315h61.333   c3.068,72.082,60.626,130.049,132.552,133.726V461.82z M260.263,307.088v-40.27h-39.773v-13.116h39.773v-39.271h13.116v39.271   h39.773v13.116h-39.773v40.27H260.263z M272.368,461.903v-61.792c73.033-2.494,131.869-60.91,134.967-133.796h62.246   C466.407,373.307,379.572,459.598,272.368,461.903z M407.334,254.21c-3.104-72.885-61.934-131.299-134.967-133.787V58.626   c107.204,2.3,194.039,88.594,197.213,195.584H407.334z M273.373,266.818h-13.116v-13.116h13.116V266.818z"
       id="path5"
       style="fill:#000000;fill-opacity:1" /></g><g
     id="g7" /><g
     id="g9" /><g
     id="g11" /><g
     id="g13" /><g
     id="g15" /><g
     id="g17" /><g
     id="g19" /><g
     id="g21" /><g
     id="g23" /><g
     id="g25" /><g
     id="g27" /><g
     id="g29" /><g
     id="g31" /><g
     id="g33" /><g
     id="g35" /></svg>